<?xml version="1.0" encoding="UTF-8"?>
<!DOCTYPE svg
  PUBLIC '-//W3C//DTD SVG 1.1//EN'
  'http://www.w3.org/Graphics/SVG/1.1/DTD/svg11.dtd'>
<svg version="1.1" xmlns="http://www.w3.org/2000/svg" width="24.110mm" height="12.000mm">
    <!--Autogenerated with python-barcode 0.14.0-->
    <g id="barcode_group">
        <rect width="100%" height="100%" style="fill:white"/>
        <rect x="1.000mm" y="1.000mm" width="0.330mm" height="10.000mm" style="fill:black;"/>
        <rect x="1.660mm" y="1.000mm" width="0.330mm" height="10.000mm" style="fill:black;"/>
        <rect x="2.650mm" y="1.000mm" width="0.660mm" height="10.000mm" style="fill:black;"/>
        <rect x="3.970mm" y="1.000mm" width="0.330mm" height="10.000mm" style="fill:black;"/>
        <rect x="4.960mm" y="1.000mm" width="0.660mm" height="10.000mm" style="fill:black;"/>
        <rect x="6.280mm" y="1.000mm" width="0.330mm" height="10.000mm" style="fill:black;"/>
        <rect x="7.270mm" y="1.000mm" width="0.660mm" height="10.000mm" style="fill:black;"/>
        <rect x="8.590mm" y="1.000mm" width="0.330mm" height="10.000mm" style="fill:black;"/>
        <rect x="9.580mm" y="1.000mm" width="0.660mm" height="10.000mm" style="fill:black;"/>
        <rect x="10.900mm" y="1.000mm" width="0.330mm" height="10.000mm" style="fill:black;"/>
        <rect x="11.560mm" y="1.000mm" width="0.330mm" height="10.000mm" style="fill:black;"/>
        <rect x="12.220mm" y="1.000mm" width="0.330mm" height="10.000mm" style="fill:black;"/>
        <rect x="12.880mm" y="1.000mm" width="0.660mm" height="10.000mm" style="fill:black;"/>
        <rect x="14.200mm" y="1.000mm" width="0.660mm" height="10.000mm" style="fill:black;"/>
        <rect x="15.190mm" y="1.000mm" width="0.660mm" height="10.000mm" style="fill:black;"/>
        <rect x="16.510mm" y="1.000mm" width="0.660mm" height="10.000mm" style="fill:black;"/>
        <rect x="17.500mm" y="1.000mm" width="0.660mm" height="10.000mm" style="fill:black;"/>
        <rect x="18.820mm" y="1.000mm" width="0.660mm" height="10.000mm" style="fill:black;"/>
        <rect x="19.810mm" y="1.000mm" width="0.330mm" height="10.000mm" style="fill:black;"/>
        <rect x="20.800mm" y="1.000mm" width="0.990mm" height="10.000mm" style="fill:black;"/>
        <rect x="22.120mm" y="1.000mm" width="0.330mm" height="10.000mm" style="fill:black;"/>
        <rect x="22.780mm" y="1.000mm" width="0.330mm" height="10.000mm" style="fill:black;"/>
    </g>
</svg>
