<svg
    xmlns="http://www.w3.org/2000/svg"
    viewBox="0 0 25 25"
    id="vector">
    <path
        id="path"
        d="M 3.438 2.99 L 22.196 2.99 L 22.196 21.396 L 18.69 21.048 L 15.833 22 L 12.817 21.048 L 9.167 22 L 5.833 21.048 L 3.438 21.396 Z"
        fill="#fff"
        fill-rule="evenodd"/>
    <path
        id="path_1"
        d="M 21.155 21.132 L 19.513 19.83 C 19.323 19.716 19.105 19.656 18.883 19.656 C 18.661 19.656 18.443 19.716 18.253 19.83 L 16.089 21.53 L 13.44 19.83 C 12.95 19.656 12.63 19.656 12.065 19.83 L 9.123 21.53 L 6.6 19.83 C 6.409 19.717 6.192 19.657 5.97 19.656 C 5.754 19.656 5.537 19.714 5.34 19.83 L 3.832 21.122 L 3.832 4.414 C 3.832 3.86 4.278 3.41 4.839 3.409 L 20.159 3.371 C 20.336 3.369 20.51 3.415 20.663 3.502 C 20.817 3.59 20.944 3.717 21.032 3.87 C 21.12 4.023 21.166 4.197 21.165 4.374 L 21.155 21.132 Z M 22.5 17.106 L 22.5 4.023 C 22.501 3.494 22.291 2.986 21.918 2.611 C 21.545 2.236 21.038 2.023 20.509 2.021 L 4.49 2.021 C 3.39 2.021 2.499 2.914 2.499 4.023 L 2.499 21.06 C 2.499 21.585 2.742 22.06 3.15 22.33 C 3.557 22.6 4.05 22.616 4.471 22.368 L 5.91 21.06 L 8.533 22.811 C 9.047 23.071 9.386 22.976 9.835 22.811 L 12.696 21.061 C 12.696 21.061 15.291 22.675 15.516 22.811 C 15.74 22.947 16.313 23.096 16.763 22.811 L 18.852 21.061 L 20.528 22.368 C 20.948 22.615 21.442 22.601 21.848 22.331 C 22.256 22.061 22.499 21.585 22.499 21.061 L 22.499 8.81 L 22.5 17.105 Z"
        fill="#fff"
        fill-rule="evenodd"/>
</svg>
