<svg
    xmlns="http://www.w3.org/2000/svg"
    viewBox="0 0 25 25"
    id="vector">
    <path
        id="path_1"
        d="M 12.417 1.77 C 17.275 1.77 21.225 5.784 21.225 10.716 C 21.227 12.808 20.499 14.837 19.168 16.452 L 18.826 16.84 C 18.774 16.91 18.707 16.977 18.638 17.043 L 12.42 23.699 L 6.195 17.043 C 6.128 16.973 6.059 16.91 6.008 16.84 L 5.718 16.452 L 5.668 16.452 C 4.336 14.838 3.607 12.809 3.609 10.716 C 3.609 5.782 7.561 1.769 12.417 1.769 Z M 12.5 13.827 C 13.042 13.838 13.574 13.674 14.017 13.361 C 14.46 13.047 14.79 12.599 14.96 12.084 C 15.13 11.569 15.13 11.012 14.96 10.497 C 14.79 9.982 14.46 9.534 14.017 9.22 C 13.574 8.907 13.042 8.743 12.5 8.754 C 11.836 8.767 11.203 9.04 10.739 9.514 C 10.274 9.989 10.013 10.627 10.013 11.29 C 10.013 11.954 10.274 12.592 10.739 13.067 C 11.203 13.541 11.836 13.814 12.5 13.827 Z"
        fill="#c2c3ca"
        stroke-width="0.1"
        fill-rule="evenodd"/>
</svg>
