<svg
    xmlns="http://www.w3.org/2000/svg"
    viewBox="0 0 25 25"
    id="vector">
    <path
        id="path"
        d="M 12.5 12.613 C 9.722 12.613 7.444 10.375 7.444 7.584 C 7.444 4.821 9.722 2.555 12.5 2.555 C 15.278 2.555 17.556 4.793 17.556 7.585 C 17.556 10.347 15.278 12.613 12.5 12.613 Z"
        fill="#c2c3ca"/>
    <path
        id="path_2"
        d="M 20.952 22.522 L 4.048 22.522 C 3.682 22.522 3.331 22.376 3.072 22.117 C 2.813 21.858 2.667 21.507 2.667 21.141 C 2.667 15.974 6.917 11.746 12.111 11.746 L 12.889 11.746 C 18.083 11.746 22.333 15.974 22.333 21.141 C 22.333 21.904 21.715 22.522 20.952 22.522 Z"
        fill="#c2c3ca"/>
</svg>
